<svg xmlns="http://www.w3.org/2000/svg" version="1.1" xmlns:xlink="http://www.w3.org/1999/xlink" xmlns:svgjs="http://svgjs.dev/svgjs" width="2000" height="2250" viewBox="0 0 2000 2250"><g transform="matrix(1,0,0,1,3.410605131648481e-13,0)"><svg viewBox="0 0 320 360" data-background-color="#ff5858" preserveAspectRatio="xMidYMid meet" height="2250" width="2000" xmlns="http://www.w3.org/2000/svg" xmlns:xlink="http://www.w3.org/1999/xlink"><g id="tight-bounds" transform="matrix(1,0,0,1,0,0)"><svg viewBox="0 0 320 360" height="360" width="320"><g><svg></svg></g><g><svg viewBox="0 0 320 360" height="360" width="320"><g><path d="M20.961 227.22l3.726 4.658-1.863-6.056c-0.466-2.795-3.726 0.466-1.863 1.398M25.153 224.425c1.397 2.329 2.795 4.658 2.795 6.987 0 3.261 2.795 4.658 5.123 5.589-3.261-3.726-5.124-13.974-7.918-12.576M204.017 26.929c7.918 0 15.371-0.932 23.756 0.931 20.495 5.124 37.729 15.371 49.374 29.811l32.606 52.169c1.397 13.042 4.192 27.482 3.726 43.319 3.261 0 2.795-4.658 6.521-5.59-3.726 9.316-5.59 20.961-6.521 34.469-2.329-7.453 0-18.632 0.466-24.687-3.261 5.124-5.124 1.397-5.124-0.932 0.466-3.726-1.397-3.261-2.795-4.658-5.124-4.658-8.384-9.782-12.11-17.7 2.329-6.055 2.795-14.905-4.658-19.563-2.329-1.397-5.124-3.726-6.521-7.453-1.863-5.124-5.124-11.179-4.193-19.097 0.466-2.329-6.987 5.124-11.179 1.863-18.166-12.576-36.332-27.016-58.224-39.127-11.645 0-20.029-4.192-24.221-9.316-3.726-4.658-0.932-10.713 4.658-11.179 3.261 0 6.987-0.932 9.782 0.932 0.466-1.863 2.329-4.192 4.657-4.192M157.904 16.215l0.932 0.466c4.658 0.932 6.987 7.453 12.11 5.124 0 3.261 0.466 6.521-0.466 8.85-1.397 3.726-5.59 3.726-8.85 3.726-31.208-1.863-49.374 11.179-68.471 22.358-5.124 3.261-10.713 5.59-14.906 9.782-20.029 18.632-41.921 35.866-47.045 70.335l-4.192 38.195c-0.466 4.192-5.124 8.384-4.192 13.508l3.26 22.824c-3.261-3.261-5.124 0.932-4.192 2.795 0.466 1.397 2.329 6.055 5.124 1.863 3.726 6.987 7.453 20.495 12.576 26.55 15.837 18.632 36.332 35.4 53.101 52.169 4.192-0.932 7.453-0.932 8.384-3.727 1.397 2.795-1.397 5.59-3.726 6.056 7.453 4.658 15.837 8.85 27.016 9.781 14.44 0.932 27.948 3.261 40.524 6.522 6.521-1.863 13.042-2.795 20.029-3.261 2.329 0 3.726-3.726 6.521-4.658l0.466-4.658c2.795 4.192 2.329-1.397 0.466-4.192 3.261 2.795 4.192 5.124 5.589 6.987 0-1.397 3.726-6.521 3.727-0.466l0.931-6.055c1.397-0.932 1.863 5.124 3.261 0.931 1.397-4.192 4.192-0.932 6.987-2.329-0.932 1.863-0.466 5.59 2.794 3.261l3.727-3.261c2.329 5.59 6.055 3.261 7.918 2.329 20.495-13.042 40.99-28.413 60.553-43.784l-0.466 6.055 2.329-7.453c2.329 2.329 4.192 0.466 5.124-0.931 2.795-4.658 6.521-9.316 12.577-13.508-7.453 20.029-16.303 35.866-27.482 48.908l-4.658 5.59c0 3.261-0.932 7.453-4.658 7.918-1.863 0.466-5.59-0.932-8.384 1.863-1.397 1.863 3.261 5.59-0.466 2.795-3.261-2.329-6.521 0-10.248 0.932-2.795 0.932 1.863 3.726 2.795 5.589 0.932 1.863 1.863 3.726 1.398 6.056l-5.124-5.59c-6.055 3.261-9.782 9.316-14.906 13.974-2.329 1.863-1.397 5.124-1.397 7.918-3.261 0-6.987-0.932-8.85 0.932-1.397 1.863-0.932 4.658-0.932 7.453-4.658-0.466-5.124-7.453-9.315-6.056-4.192 0.932-8.85 1.397-12.577 3.727 2.795 5.59-4.658 2.329-3.726 3.26-6.987-4.192-13.042-7.453-20.495-4.658-15.837-5.124-35.4-2.795-49.84-0.931 0-2.329 0.466-4.658-0.466-5.124-0.932 2.329-3.726 1.397-3.26 1.397-8.85-6.055-17.7-9.782-27.016-14.905-8.384 0.932-16.303-3.261-18.632-5.59-6.521-6.055-13.974-2.795-20.029-4.192-13.042-3.261-17.7-16.769-19.098-26.084-0.932-4.658-4.658-6.521-6.055-6.056-6.055-19.563-15.371-37.263-22.824-55.429-1.863-4.658-1.397-9.316-1.397-14.44 2.329 0.932 4.658 0.466 4.192-2.794-2.329-15.371-7.918-27.016-13.974-38.195 3.261-15.837 3.726-34.469 11.179-48.443 6.521-12.576 18.632-19.098 27.016-29.811 2.795-3.726 2.795-8.85 5.59-12.11 9.316-9.316 18.632-19.098 28.879-27.482 4.658-3.726 10.247 0 17.234-1.397 2.329-8.384 11.645-15.837 20.495-13.508 3.726 0.932 11.179-8.85 13.508-9.782 3.726-1.397 1.863 3.726 1.863 6.987 8.85-6.987 20.961-10.713 32.14-14.906" fill="#915eff" fill-rule="nonzero" stroke="none" stroke-width="1" stroke-linecap="butt" stroke-linejoin="miter" stroke-miterlimit="10" stroke-dasharray="" stroke-dashoffset="0" font-family="none" font-weight="none" font-size="none" text-anchor="none" style="mix-blend-mode: normal" data-fill-palette-color="tertiary"></path></g><g transform="matrix(1,0,0,1,66.41268980477226,90)"><svg viewBox="0 0 187.1746203904555 180" height="180" width="187.1746203904555"><g><svg viewBox="0 0 187.1746203904555 180" height="180" width="187.1746203904555"><g><svg viewBox="0 0 187.1746203904555 180" height="180" width="187.1746203904555"><g><svg viewBox="0 0 187.1746203904555 180" height="180" width="187.1746203904555"><g id="textblocktransform"><svg viewBox="0 0 187.1746203904555 180" height="180" width="187.1746203904555" id="textblock"><g><svg viewBox="0 0 187.1746203904555 180" height="180" width="187.1746203904555"><g transform="matrix(1,0,0,1,0,0)"><svg width="187.1746203904555" viewBox="1.51 -36.01692307692308 37.45 36.01692307692308" height="180" data-palette-color="#ffffff"><path d="M38.96-25.29L38.96-25.29Q38.96-22.56 37.35-20.68 35.74-18.8 33.15-17.55 30.57-16.31 27.34-15.6 24.12-14.89 20.92-14.55 17.72-14.21 14.87-14.11 12.01-14.01 10.16-14.01L10.16-14.01Q10.16-12.3 10.13-10.67 10.11-9.03 10.11-7.32L10.11-7.32Q10.11-6.88 10.11-5.81 10.11-4.74 10.16-3.54 10.21-2.34 10.38-1.32 10.55-0.29 10.84 0L10.84 0 2.29 0Q2.59-0.29 2.78-1.9 2.98-3.52 3.1-5.76 3.22-8.01 3.25-10.64 3.27-13.28 3.27-15.65 3.27-18.02 3.25-19.87 3.22-21.73 3.22-22.41L3.22-22.41Q3.22-22.85 3.25-23.97 3.27-25.1 3.25-26.56 3.22-28.03 3.15-29.64 3.08-31.25 2.88-32.62 2.69-33.98 2.34-34.91 2-35.84 1.51-35.99L1.51-35.99 8.54-35.99Q9.23-35.99 10.38-36.01 11.52-36.04 12.21-35.94L12.21-35.94Q14.79-35.94 17.33-35.84 19.87-35.74 22.46-35.5L22.46-35.5Q23.97-35.35 25.81-35.11 27.64-34.86 29.47-34.4 31.3-33.94 33.01-33.2 34.72-32.47 36.04-31.4 37.35-30.32 38.16-28.81 38.96-27.29 38.96-25.29ZM30.13-25.34L30.13-25.34Q30.13-26.76 29.1-27.71 28.08-28.66 26.49-29.27 24.9-29.88 22.92-30.2 20.95-30.52 19.02-30.64 17.09-30.76 15.48-30.76 13.87-30.76 12.94-30.76L12.94-30.76 10.6-30.76Q10.25-27.78 10.21-24.8 10.16-21.83 10.16-18.85L10.16-18.85Q12.11-18.85 14.04-18.9 15.97-18.95 17.92-19.09L17.92-19.09Q19.34-19.19 21.44-19.43 23.54-19.68 25.46-20.31 27.39-20.95 28.76-22.14 30.13-23.34 30.13-25.34Z" opacity="1" transform="matrix(1,0,0,1,0,0)" fill="#ffffff" class="wordmark-text-0" data-fill-palette-color="primary" id="text-0"></path></svg></g></svg></g></svg></g></svg></g><g></g></svg></g></svg></g></svg></g></svg></g><defs></defs></svg><rect width="320" height="360" fill="none" stroke="none" visibility="hidden"></rect></g></svg></g></svg>